<?xml version="1.0" encoding="iso-8859-1"?>
<!-- Generator: Adobe Illustrator 19.0.0, SVG Export Plug-In . SVG Version: 6.00 Build 0)  -->
<svg version="1.1" id="Capa_1" xmlns="http://www.w3.org/2000/svg" xmlns:xlink="http://www.w3.org/1999/xlink" x="0px" y="0px"
	 viewBox="0 0 512.001 512.001" style="enable-background:new 0 0 512.001 512.001;" xml:space="preserve">
<path style="fill:#F8D9B9;" d="M147.443,476.061c8.154-17.486,5.601-36.993-4.998-50.138c-2.863-3.551-2.552-8.699,0.673-11.925
	l150.16-150.16l-45.134-45.134l-150.16,150.16c-3.226,3.226-8.374,3.537-11.925,0.673c-13.146-10.599-32.652-13.152-50.138-4.998
	c-23.776,11.087-34.802,37.762-24.628,59.58c7.818,16.766,25.88,25.781,44.613,24.027c4.573-0.428,8.359,3.357,7.931,7.931
	c-1.753,18.734,7.263,36.795,24.028,44.613C109.681,510.865,136.356,499.838,147.443,476.061z"/>
<path style="opacity:0.1;enable-background:new    ;" d="M207.836,349.281l85.442-85.442l-45.135-45.135L162.7,304.145
	c3.737,11.482,9.23,21.22,16.572,28.563C186.616,340.051,196.354,345.543,207.836,349.281z"/>
<path style="fill:#BA8E79;" d="M259.561,49.464c-78.313,78.313-103.432,215.396-57.936,260.892s182.581,20.376,260.892-57.936
	c56.046-56.045,56.046-146.912,0-202.957C406.473-6.582,315.606-6.582,259.561,49.464z"/>
<g>
	
		<ellipse transform="matrix(0.7071 -0.7071 0.7071 0.7071 2.0453 237.1906)" style="fill:#F18290;" cx="287.337" cy="116.126" rx="22.547" ry="28.312"/>
	
		<ellipse transform="matrix(-0.7071 0.7071 -0.7071 -0.7071 834.6149 103.6025)" style="fill:#F18290;" cx="395.851" cy="224.656" rx="22.547" ry="28.312"/>
</g>
<path style="opacity:0.1;enable-background:new    ;" d="M462.519,252.42c11.66-11.66,20.885-24.829,27.694-38.877
	c-253.88,151.244-293.774-6.463-283.574-87.697c-33.92,71.574-37.758,151.764-5.012,184.509
	C247.122,355.852,384.206,330.733,462.519,252.42z"/>
<path style="opacity:0.1;enable-background:new    ;" d="M144.507,481.471c-55.419,10.228-64.293-24.455-65.315-46.222
	c-0.226-4.811-3.662-8.93-8.384-9.881c-34.457-6.947-47.845-38.63-35.704-60.425c-23.204,11.314-33.867,37.612-23.812,59.176
	c7.818,16.766,25.879,25.781,44.612,24.028c4.539-0.425,8.357,3.392,7.932,7.932c-1.753,18.734,7.263,36.795,24.028,44.612
	C107.949,510.057,132.14,501.446,144.507,481.471z"/>
<g style="opacity:0.1;">
	<circle cx="325.662" cy="49.175" r="7.226"/>
	<circle cx="368.416" cy="41.948" r="7.226"/>
	<circle cx="233.533" cy="283.987" r="7.226"/>
	<circle cx="280.108" cy="298.449" r="7.226"/>
	<circle cx="268.647" cy="269.536" r="7.226"/>
	<circle cx="476.257" cy="133.073" r="7.226"/>
</g>
<path d="M467.823,44.159c-58.881-58.879-154.685-58.879-213.566,0c-37.631,37.632-65.855,91.037-77.435,146.525
	c-7.076,33.903-6.949,64.751-0.197,88.929l-83.947,83.948c-0.531,0.531-1.352,0.589-1.912,0.138
	c-5.49-4.425-11.833-7.639-18.856-9.549c-3.992-1.079-8.119,1.272-9.207,5.27c-1.087,3.997,1.271,8.119,5.27,9.207
	c5.01,1.362,9.511,3.634,13.377,6.752c3.02,2.435,6.655,3.635,10.281,3.635c4.229,0,8.445-1.634,11.655-4.844l79.028-79.028
	c3.733,8.001,8.405,14.918,14.007,20.521c5.601,5.601,12.496,10.288,20.497,14.028l-79.005,79.004
	c-5.965,5.965-6.484,15.397-1.209,21.938c9.14,11.335,10.726,27.923,4.039,42.26c-4.565,9.792-12.319,17.352-21.832,21.283
	c-9.288,3.839-19.153,3.739-27.779-0.282c-13.506-6.299-21.25-20.868-19.73-37.118c0.412-4.409-1.139-8.727-4.254-11.843
	c-3.116-3.115-7.436-4.657-11.844-4.254c-16.255,1.519-30.819-6.223-37.117-19.73c-8.409-18.035,1.012-40.291,21.002-49.612
	c3.754-1.75,5.379-6.213,3.627-9.968c-1.751-3.754-6.213-5.379-9.968-3.627C5.264,370.558-7.412,401.757,4.493,427.289
	c8.839,18.954,29.641,30.32,51.85,28.35c-1.974,22.197,9.396,43.011,28.35,51.85c6.447,3.006,13.338,4.511,20.318,4.511
	c6.533,0,13.142-1.318,19.532-3.96c12.993-5.371,23.54-15.602,29.697-28.808c9.087-19.486,6.749-42.258-5.958-58.017
	c-0.443-0.551-0.383-1.391,0.14-1.912l83.926-83.927c12.001,3.355,25.666,5.081,40.593,5.081
	c10.074-0.001,20.726-0.784,31.817-2.378c46.936-6.744,96.058-27.15,134.775-55.985c3.322-2.474,4.01-7.174,1.535-10.495
	c-2.474-3.323-7.174-4.01-10.495-1.535c-36.776,27.39-83.41,46.769-127.948,53.167c-27.066,3.89-50.893,2.716-69.269-3.092
	c-0.559-0.26-1.139-0.457-1.735-0.572c-10.089-3.415-18.454-8.274-24.692-14.512c-19.725-19.724-25.635-62.373-15.423-111.305
	c10.999-52.703,37.736-103.36,73.358-138.981c53.03-53.03,139.321-53.03,192.349,0c53.03,53.03,53.03,139.319,0,192.349
	c-2.929,2.93-2.929,7.679,0,10.608c2.93,2.928,7.679,2.928,10.608,0C526.702,198.845,526.702,103.04,467.823,44.159z
	 M401.853,184.701l-7.07,7.07c-2.929,2.93-2.929,7.679,0,10.608c1.465,1.464,3.385,2.196,5.304,2.196
	c1.919,0,3.839-0.732,5.305-2.196l7.07-7.07c2.929-2.93,2.929-7.679,0-10.608C409.53,181.773,404.782,181.773,401.853,184.701z
	 M346.468,136.087c-4.137-0.277-7.714,2.837-7.997,6.97c-0.566,8.248,2.457,16.326,8.293,22.16
	c5.372,5.373,12.642,8.361,20.197,8.361c0.652,0,1.308-0.022,1.964-0.067c4.132-0.283,7.253-3.863,6.97-7.997
	c-0.283-4.133-3.868-7.251-7.997-6.97c-3.922,0.28-7.757-1.164-10.526-3.935c-2.769-2.768-4.203-6.605-3.934-10.525
	C353.721,139.95,350.601,136.37,346.468,136.087z M316.672,99.52l-7.07,7.07c-2.929,2.93-2.929,7.679,0,10.608
	c1.465,1.464,3.385,2.196,5.305,2.196c1.919,0,3.839-0.732,5.305-2.196l7.07-7.07c2.929-2.93,2.929-7.679,0-10.609
	C324.351,96.593,319.603,96.593,316.672,99.52z"/>
<g>
</g>
<g>
</g>
<g>
</g>
<g>
</g>
<g>
</g>
<g>
</g>
<g>
</g>
<g>
</g>
<g>
</g>
<g>
</g>
<g>
</g>
<g>
</g>
<g>
</g>
<g>
</g>
<g>
</g>
</svg>
